<?xml version="1.0" encoding="utf-8"?>
<!-- Generator: Adobe Illustrator 19.0.0, SVG Export Plug-In . SVG Version: 6.00 Build 0)  -->
<svg version="1.1" id="Layer_1" xmlns="http://www.w3.org/2000/svg" xmlns:xlink="http://www.w3.org/1999/xlink" x="0px" y="0px"
	 viewBox="0 0 256 256" style="enable-background:new 0 0 256 256;" xml:space="preserve">
<style type="text/css">
	.st0{fill:#FF7900;}
</style>
<g>
	<path class="st0" d="M0,256C0,170.7,0,85.3,0,0c85.3,0,170.7,0,256,0c0,85.3,0,170.7,0,256C170.7,256,85.3,256,0,256z M39.6,39.6
		c0,11.9,0.2,23.2-0.1,34.5c-0.1,4,1.1,6.8,3.9,9.6c42.6,42.5,85.2,85.1,127.7,127.7c2.8,2.8,5.6,4.2,9.6,4.1
		c9.7-0.3,19.3-0.1,29-0.1c1.8,0,3.5-0.2,5.7-0.3c0-11.2-0.2-21.8,0.1-32.4c0.1-4.5-1.1-7.8-4.4-10.9c-8.6-8.1-16.7-16.6-25.1-25
		c-34.5-34.5-68.9-68.9-103.4-103.3c-1.7-1.6-4-3.6-6-3.7C64.5,39.4,52.5,39.6,39.6,39.6z M215.1,120.4c0-27.1,0-53.6,0-80.2
		c-26.9,0-53.5,0-80.2,0C161.6,66.9,188,93.3,215.1,120.4z M118.5,215.1c-26.3-26.3-52.4-52.4-78.5-78.6c0,25.9,0,52.1,0,78.6
		C66.3,215.1,92.4,215.1,118.5,215.1z"/>
</g>
</svg>
