<svg id="Layer_1" xmlns="http://www.w3.org/2000/svg" viewBox="0 0 256 256">
  <style>
    .st0{display:none;} .st1{display:inline;fill:#FF7900;} .st2{fill:#FFFFFF;} .st3{fill:#FF7900;}
  </style>
  <g id="Layer_1_1_" class="st0">
    <path id="Layer_2" class="st1" d="M189.2 39.5H39.5v177h177v-177h-27.3zm0 149.7H66.8V66.8h122.4v122.4z"/>
    <path id="Layer_3" class="st1" d="M161 189.2h-38.2l-56-56V95l94.2 94.2zM95 66.8h38.2l56 56V161L95 66.8z"/>
  </g>
  <path class="st2" d="M0 0h256v256H0z" id="Layer_2_1_"/>
  <path class="st3" d="M2 0C.9 0 0 .9 0 2v252c0 1.1.9 2 2 2h252c1.1 0 2-.9 2-2V2c0-1.1-.9-2-2-2H2zm66.8 189.2c-1.1 0-2-.9-2-2v-52c0-1.1.6-1.4 1.4-.6l53.2 53.2c.8.8.5 1.4-.6 1.4h-52zm-.6-92.8c-.8-.8-1.4-2.3-1.4-3.4V68.8c0-1.1.9-2 2-2H93c1.1 0 2.6.6 3.4 1.4l91.4 91.4c.8.8 1.4 2.3 1.4 3.4v24.1c0 1.1-.9 2-2 2H163c-1.1 0-2.6-.6-3.4-1.4L68.2 96.4zm119-29.6c1.1 0 2 .9 2 2v52c0 1.1-.6 1.4-1.4.6l-53.2-53.2c-.8-.8-.5-1.4.6-1.4h52z"/>
</svg>
