<svg xmlns="http://www.w3.org/2000/svg" viewBox="0 0 256 256">
  <style>
    .st0{display:none;} .st1{display:inline;} .st2{fill:#FF7900;}
  </style>
  <g id="Layer_1" class="st0">
    <path class="st1 st2" d="M216.5 0H0v256h256V0h-39.5zm0 216.5h-177v-177h177v177z" id="Layer_2"/>
    <path class="st1 st2" d="M175.8 216.5h-55.3l-81-81V80.2zm-95.6-177h55.3l81 81v55.3z" id="Layer_3"/>
  </g>
  <path class="st2" d="M218.5 0H2C.9 0 0 .9 0 2v252c0 1.1.9 2 2 2h252c1.1 0 2-.9 2-2V2c0-1.1-.9-2-2-2h-35.5zm-177 216.5c-1.1 0-2-.9-2-2v-77c0-1.1.6-1.4 1.4-.6l78.2 78.2c.8.8.5 1.4-.6 1.4h-77zm175-2c0 1.1-.9 2-2 2h-36.7c-1.1 0-2.6-.6-3.4-1.4L40.9 81.6c-.8-.8-1.4-2.3-1.4-3.4V41.5c0-1.1.9-2 2-2h36.7c1.1 0 2.6.6 3.4 1.4l133.5 133.5c.8.8 1.4 2.3 1.4 3.4v36.7zm0-96c0 1.1-.6 1.4-1.4.6l-78.2-78.2c-.8-.8-.5-1.4.6-1.4h77c1.1 0 2 .9 2 2v77z" id="Layer_1_copy"/>
</svg>
